<svg width="32" height="33" viewBox="0 0 32 33" fill="none" xmlns="http://www.w3.org/2000/svg">
<circle cx="16" cy="16.5" r="16" fill="#FF4D67"/>
<g clip-path="url(#clip0_33_32105)">
<path d="M16 19.3002C17.5464 19.3002 18.8 18.0466 18.8 16.5002C18.8 14.9538 17.5464 13.7002 16 13.7002C14.4536 13.7002 13.2 14.9538 13.2 16.5002C13.2 18.0466 14.4536 19.3002 16 19.3002Z" fill="white"/>
<path d="M13.375 7.75L11.7738 9.5H9C8.0375 9.5 7.25 10.2875 7.25 11.25V21.75C7.25 22.7125 8.0375 23.5 9 23.5H23C23.9625 23.5 24.75 22.7125 24.75 21.75V11.25C24.75 10.2875 23.9625 9.5 23 9.5H20.2262L18.625 7.75H13.375ZM16 20.875C13.585 20.875 11.625 18.915 11.625 16.5C11.625 14.085 13.585 12.125 16 12.125C18.415 12.125 20.375 14.085 20.375 16.5C20.375 18.915 18.415 20.875 16 20.875Z" fill="white"/>
</g>
<defs>
<clipPath id="clip0_33_32105">
<rect width="21" height="21" fill="white" transform="translate(5.5 6)"/>
</clipPath>
</defs>
</svg>
