<svg width="28" height="29" viewBox="0 0 28 29" fill="none" xmlns="http://www.w3.org/2000/svg">
<g clip-path="url(#clip0_58_2696)">
<path d="M9.74926 1.4206C6.95162 2.39112 4.53895 4.23321 2.86561 6.67629C1.19228 9.11937 0.34649 12.0347 0.452477 14.994C0.558463 17.9533 1.61064 20.8006 3.45446 23.1177C5.29828 25.4348 7.83655 27.0996 10.6964 27.8675C13.015 28.4657 15.4442 28.492 17.7752 27.944C19.8868 27.4697 21.8391 26.4551 23.4408 24.9997C25.1079 23.4385 26.3179 21.4526 26.9408 19.2553C27.6179 16.8658 27.7384 14.353 27.293 11.9097H14.273V17.3106H21.8133C21.6626 18.172 21.3397 18.9942 20.8638 19.7279C20.388 20.4616 19.769 21.0917 19.0439 21.5806C18.1232 22.1897 17.0852 22.5995 15.9968 22.7837C14.9051 22.9867 13.7853 22.9867 12.6936 22.7837C11.5872 22.555 10.5405 22.0983 9.6202 21.4428C8.14177 20.3963 7.03168 18.9095 6.44832 17.1947C5.8551 15.4477 5.8551 13.5538 6.44832 11.8068C6.86357 10.5823 7.55002 9.46739 8.45645 8.54529C9.49374 7.47067 10.807 6.70253 12.2521 6.32514C13.6972 5.94775 15.2184 5.9757 16.6486 6.40591C17.7659 6.74889 18.7877 7.34815 19.6324 8.15591C20.4826 7.31008 21.3313 6.46206 22.1786 5.61185C22.6161 5.15466 23.093 4.71935 23.5239 4.25122C22.2346 3.05133 20.7211 2.11766 19.0702 1.50372C16.0639 0.412138 12.7745 0.382803 9.74926 1.4206Z" fill="white"/>
<path d="M9.74931 1.42068C12.7743 0.382184 16.0637 0.410747 19.0702 1.50162C20.7214 2.11973 22.2342 3.05789 23.5218 4.26225C23.0843 4.73037 22.6227 5.16787 22.1765 5.62287C21.3277 6.47016 20.4797 7.31454 19.6324 8.156C18.7877 7.34824 17.766 6.74898 16.6487 6.406C15.2189 5.97427 13.6978 5.94471 12.2523 6.32056C10.8068 6.6964 9.49274 7.46313 8.45431 8.53662C7.54788 9.45873 6.86143 10.5737 6.44619 11.7982L1.9115 8.28725C3.53464 5.06847 6.34501 2.60636 9.74931 1.42068Z" fill="#E33629"/>
<path d="M0.708378 11.7652C0.952112 10.5573 1.35676 9.38748 1.9115 8.28711L6.44619 11.8068C5.85297 13.5537 5.85297 15.4477 6.44619 17.1946C4.93536 18.3613 3.42379 19.5338 1.9115 20.7121C0.52277 17.9478 0.0992302 14.7982 0.708378 11.7652Z" fill="#F8BD00"/>
<path d="M14.2731 11.9082H27.2931C27.7384 14.3515 27.618 16.8644 26.9409 19.2538C26.318 21.4511 25.1079 23.4371 23.4409 24.9982C21.9774 23.8563 20.5074 22.7232 19.044 21.5813C19.7695 21.0919 20.3888 20.4611 20.8647 19.7266C21.3406 18.9921 21.6632 18.1691 21.8134 17.307H14.2731C14.2709 15.5088 14.2731 13.7085 14.2731 11.9082Z" fill="#587DBD"/>
<path d="M1.9093 20.7128C3.42159 19.5461 4.93316 18.3736 6.44399 17.1953C7.02851 18.9107 8.14019 20.3976 9.62024 21.4434C10.5434 22.0959 11.5923 22.5488 12.7002 22.7734C13.7919 22.9764 14.9117 22.9764 16.0034 22.7734C17.0919 22.5892 18.1298 22.1794 19.0506 21.5703C20.514 22.7122 21.984 23.8453 23.4474 24.9872C21.8459 26.4435 19.8937 27.4588 17.7818 27.9338C15.4508 28.4817 13.0216 28.4555 10.7031 27.8572C8.86928 27.3676 7.1564 26.5044 5.6718 25.3219C4.10044 24.0743 2.81702 22.5021 1.9093 20.7128Z" fill="#319F43"/>
</g>
<defs>
<clipPath id="clip0_58_2696">
<rect width="28" height="28" fill="white" transform="translate(-0.00476074 0.5)"/>
</clipPath>
</defs>
</svg>
