<svg width="54" height="61" viewBox="0 0 54 61" fill="none" xmlns="http://www.w3.org/2000/svg">
<path d="M27 33.5C34.188 33.5 40.725 35.582 45.534 38.516C47.934 39.98 49.986 41.708 51.468 43.586C52.926 45.431 54 47.639 54 50C54 52.535 52.767 54.533 50.991 55.958C49.311 57.308 47.094 58.202 44.739 58.826C40.005 60.077 33.687 60.5 27 60.5C20.313 60.5 13.995 60.08 9.261 58.826C6.906 58.202 4.689 57.308 3.009 55.958C1.23 54.53 0 52.535 0 50C0 47.639 1.074 45.431 2.532 43.583C4.014 41.708 6.063 39.983 8.466 38.513C13.275 35.585 19.815 33.5 27 33.5ZM27 0.5C30.9782 0.5 34.7936 2.08035 37.6066 4.8934C40.4196 7.70644 42 11.5218 42 15.5C42 19.4782 40.4196 23.2936 37.6066 26.1066C34.7936 28.9196 30.9782 30.5 27 30.5C23.0218 30.5 19.2064 28.9196 16.3934 26.1066C13.5804 23.2936 12 19.4782 12 15.5C12 11.5218 13.5804 7.70644 16.3934 4.8934C19.2064 2.08035 23.0218 0.5 27 0.5Z" fill="#FF4D67"/>
</svg>
